<?xml version="1.0" encoding="UTF-8"?>
<svg width="184px" height="27px" viewBox="0 0 184 27" version="1.1" xmlns="http://www.w3.org/2000/svg" xmlns:xlink="http://www.w3.org/1999/xlink">
    <!-- Generator: Sketch 55.2 (78181) - https://sketchapp.com -->
    <title>/kiez-box</title>
    <desc>Created with Sketch.</desc>
    <g id="Page-1" stroke="none" stroke-width="1" fill="none" fill-rule="evenodd">
        <g id="Logo4" transform="translate(-56.000000, -323.000000)" fill="#808080" fill-rule="nonzero">
            <path d="M58.7001953,347.934082 C58.449543,348.503746 58.2131359,348.891112 57.9909668,349.096191 C57.7687977,349.301271 57.5039078,349.403809 57.1962891,349.403809 C56.8772771,349.403809 56.5981457,349.287029 56.3588867,349.053467 C56.1196277,348.819904 56,348.537925 56,348.20752 C56,348.116373 56.0170897,348.010987 56.0512695,347.891357 C56.0854494,347.771728 56.1310219,347.643555 56.1879883,347.506836 L66.8520508,324.520996 C67.1368829,323.928545 67.3875315,323.526938 67.6040039,323.316162 C67.8204763,323.105386 68.082518,323 68.3901367,323 C68.7319353,323 69.0224597,323.113931 69.2617188,323.341797 C69.5009778,323.569663 69.6206055,323.843097 69.6206055,324.162109 C69.6206055,324.253256 69.6063641,324.355794 69.5778809,324.469727 C69.5493976,324.583659 69.5066735,324.691894 69.449707,324.794434 L58.7001953,347.934082 Z M80.4384766,340.927246 L80.4384766,345.96875 C80.4384766,346.424481 80.3444834,346.789061 80.1564941,347.0625 C79.9685049,347.335939 79.7264012,347.472656 79.4301758,347.472656 L76.2685547,347.472656 C75.8242165,347.472656 75.4881196,347.370118 75.2602539,347.165039 C75.0323882,346.95996 74.918457,346.652346 74.918457,346.242188 C74.918457,345.786456 75.0523261,345.475994 75.3200684,345.310791 C75.5878106,345.145588 76.1603146,345.062988 77.0375977,345.062988 L77.8579102,345.062988 L77.8579102,327.562988 L77.1572266,327.562988 C76.177404,327.562988 75.5450861,327.474692 75.2602539,327.298096 C74.9754218,327.1215 74.8330078,326.799644 74.8330078,326.33252 C74.8330078,325.922361 74.9497872,325.614747 75.1833496,325.409668 C75.416912,325.204589 75.7558572,325.102051 76.2001953,325.102051 L79.4643555,325.102051 C79.7719742,325.102051 80.0112296,325.164713 80.1821289,325.290039 C80.3530282,325.415365 80.4384766,325.586262 80.4384766,325.802734 L80.4384766,338.056152 L85.3774414,333.92041 C85.001463,333.760904 84.7251799,333.584311 84.548584,333.390625 C84.371988,333.196939 84.2836914,332.969077 84.2836914,332.707031 C84.2836914,332.365233 84.4090157,332.108888 84.659668,331.937988 C84.9103203,331.767089 85.2749,331.681641 85.753418,331.681641 L90.3847656,331.681641 C90.8177105,331.681641 91.1481108,331.778482 91.3759766,331.972168 C91.6038423,332.165854 91.7177734,332.456378 91.7177734,332.84375 C91.7177734,333.527347 91.1652073,333.926106 90.0600586,334.040039 C89.8435862,334.062826 89.6726894,334.085612 89.5473633,334.108398 C89.0802385,334.165365 88.5675484,334.344806 88.0092773,334.646729 C87.4510063,334.948651 86.8870471,335.350258 86.3173828,335.851562 L83.8393555,338.021973 L90.3164062,345.062988 L91.7861328,345.062988 C92.2760441,345.062988 92.6263824,345.154133 92.8371582,345.336426 C93.047934,345.518718 93.1533203,345.820636 93.1533203,346.242188 C93.1533203,346.640953 93.0365409,346.945718 92.8029785,347.156494 C92.5694161,347.36727 92.230471,347.472656 91.7861328,347.472656 L87.1547852,347.472656 C86.6534806,347.472656 86.2889009,347.387208 86.0610352,347.216309 C85.8331694,347.045409 85.7192383,346.771975 85.7192383,346.395996 C85.7192383,346.088377 85.8303212,345.823487 86.0524902,345.601318 C86.2746593,345.379149 86.6079079,345.199708 87.0522461,345.062988 L81.9765625,339.525879 L80.4384766,340.927246 Z M102.97998,326.759766 C102.97998,325.529291 103.091063,324.754559 103.313232,324.435547 C103.535402,324.116535 104.011064,323.957031 104.740234,323.957031 C105.446618,323.957031 105.913736,324.0909 106.141602,324.358643 C106.369467,324.626385 106.483398,325.261551 106.483398,326.26416 C106.483398,327.243983 106.378012,327.850666 106.167236,328.084229 C105.956461,328.317791 105.480798,328.43457 104.740234,328.43457 C104.011064,328.43457 103.535402,328.326336 103.313232,328.109863 C103.091063,327.893391 102.97998,327.443363 102.97998,326.759766 Z M106.141602,345.062988 L111.627441,345.062988 C112.07178,345.062988 112.399332,345.156981 112.610107,345.344971 C112.820883,345.53296 112.92627,345.832029 112.92627,346.242188 C112.92627,346.709312 112.82658,347.031168 112.627197,347.207764 C112.427815,347.38436 112.060387,347.472656 111.524902,347.472656 L98.2631836,347.472656 C97.8074521,347.472656 97.4656587,347.370118 97.237793,347.165039 C97.0099272,346.95996 96.8959961,346.652346 96.8959961,346.242188 C96.8959961,345.843422 97.0156238,345.547201 97.2548828,345.353516 C97.4941418,345.15983 97.853025,345.062988 98.331543,345.062988 L103.543945,345.062988 L103.543945,334.108398 L100.211426,334.108398 C99.744301,334.108398 99.3882662,334.003012 99.1433105,333.792236 C98.8983549,333.581461 98.7758789,333.276695 98.7758789,332.87793 C98.7758789,332.479165 98.8898101,332.180095 99.1176758,331.980713 C99.3455415,331.78133 99.687335,331.681641 100.143066,331.681641 L105.150391,331.681641 C105.458009,331.681641 105.700113,331.744303 105.876709,331.869629 C106.053305,331.994955 106.141602,332.165852 106.141602,332.382324 L106.141602,345.062988 Z M119.779297,340.329102 C119.870443,341.969735 120.425858,343.237219 121.445557,344.131592 C122.465256,345.025965 123.858064,345.473145 125.624023,345.473145 C126.957038,345.473145 128.40966,345.11711 129.981934,344.405029 C131.554207,343.692949 132.505532,343.336914 132.835938,343.336914 C133.177736,343.336914 133.462564,343.445149 133.69043,343.661621 C133.918295,343.878094 134.032227,344.145832 134.032227,344.464844 C134.032227,344.795249 133.912599,345.097167 133.67334,345.370605 C133.434081,345.644044 133.052411,345.911783 132.52832,346.173828 C131.388992,346.732099 130.212653,347.159341 128.999268,347.455566 C127.785883,347.751792 126.581061,347.899902 125.384766,347.899902 C122.787096,347.899902 120.707853,347.150805 119.146973,345.652588 C117.586092,344.154371 116.805664,342.16912 116.805664,339.696777 C116.805664,337.178861 117.631665,335.139493 119.283691,333.578613 C120.935718,332.017733 123.089017,331.237305 125.743652,331.237305 C128.147636,331.237305 130.141431,331.966464 131.725098,333.424805 C133.308764,334.883145 134.100586,336.649078 134.100586,338.722656 C134.100586,339.36068 133.966717,339.787922 133.698975,340.004395 C133.431232,340.220867 132.704921,340.329102 131.52002,340.329102 L119.779297,340.329102 Z M119.864746,338.090332 L130.990234,338.090332 C130.819335,336.734531 130.252528,335.64364 129.289795,334.817627 C128.327062,333.991614 127.145027,333.578613 125.743652,333.578613 C124.228345,333.578613 122.952316,333.977372 121.915527,334.774902 C120.878738,335.572432 120.195151,336.677565 119.864746,338.090332 Z M142.850586,345.062988 L151.361328,345.062988 L151.361328,344.174316 C151.361328,343.194494 151.449625,342.559328 151.626221,342.268799 C151.802817,341.97827 152.124672,341.833008 152.591797,341.833008 C152.990562,341.833008 153.286783,341.946939 153.480469,342.174805 C153.674155,342.40267 153.770996,342.744464 153.770996,343.200195 L153.770996,346.037109 C153.770996,346.549807 153.622886,346.917235 153.32666,347.139404 C153.030435,347.361573 152.506351,347.472656 151.754395,347.472656 L141.415039,347.472656 C140.777015,347.472656 140.292808,347.341635 139.962402,347.07959 C139.631997,346.817544 139.466797,346.435875 139.466797,345.93457 C139.466797,345.626952 139.538004,345.336427 139.68042,345.062988 C139.822836,344.789549 140.156085,344.39079 140.680176,343.866699 L150.455566,334.108398 L142.303711,334.108398 L142.303711,334.97998 C142.303711,335.971196 142.215414,336.609211 142.038818,336.894043 C141.862222,337.178875 141.540367,337.321289 141.073242,337.321289 C140.663084,337.321289 140.35547,337.207358 140.150391,336.979492 C139.945311,336.751626 139.842773,336.409833 139.842773,335.954102 L139.842773,333.048828 C139.842773,332.581703 140.033608,332.237062 140.415283,332.014893 C140.796958,331.792723 141.397945,331.681641 142.218262,331.681641 L151.361328,331.681641 C152.158858,331.681641 152.759845,331.826903 153.164307,332.117432 C153.568768,332.40796 153.770996,332.838051 153.770996,333.407715 C153.770996,333.73812 153.642824,334.111245 153.386475,334.5271 C153.130126,334.942955 152.745608,335.395831 152.23291,335.885742 L142.850586,345.062988 Z M160.436035,341.234863 C160.208169,341.234863 160.028728,341.163656 159.897705,341.02124 C159.766682,340.878824 159.701172,340.682293 159.701172,340.431641 L159.701172,338.620117 C159.701172,338.403645 159.766682,338.232748 159.897705,338.107422 C160.028728,337.982096 160.208169,337.919434 160.436035,337.919434 L174.603516,337.919434 C174.865561,337.919434 175.070637,337.982096 175.21875,338.107422 C175.366863,338.232748 175.440918,338.403645 175.440918,338.620117 L175.440918,340.431641 C175.440918,340.63672 175.35547,340.821858 175.18457,340.987061 C175.013671,341.152263 174.819988,341.234863 174.603516,341.234863 L160.436035,341.234863 Z M189.48877,345.097168 C191.095223,345.097168 192.399735,344.590174 193.402344,343.576172 C194.404953,342.562169 194.90625,341.246265 194.90625,339.628418 C194.90625,338.044751 194.396408,336.74024 193.376709,335.714844 C192.35701,334.689448 191.061043,334.176758 189.48877,334.176758 C187.905103,334.176758 186.609136,334.6866 185.60083,335.706299 C184.592524,336.725998 184.088379,338.033358 184.088379,339.628418 C184.088379,341.223478 184.592524,342.533686 185.60083,343.559082 C186.609136,344.584478 187.905103,345.097168 189.48877,345.097168 Z M184.156738,334.142578 C184.794762,333.345048 185.59228,332.735516 186.549316,332.313965 C187.506352,331.892413 188.588698,331.681641 189.796387,331.681641 C192.086437,331.681641 193.994784,332.453524 195.521484,333.997314 C197.048185,335.541105 197.811523,337.4523 197.811523,339.730957 C197.811523,341.975434 197.028247,343.878085 195.46167,345.438965 C193.895093,346.999845 191.983898,347.780273 189.728027,347.780273 C188.531732,347.780273 187.489262,347.569501 186.600586,347.147949 C185.71191,346.726398 184.98275,346.088383 184.413086,345.233887 L184.413086,346.601074 C184.413086,346.908693 184.358969,347.130859 184.250732,347.267578 C184.142496,347.404298 183.963055,347.472656 183.712402,347.472656 L180.584961,347.472656 C180.140623,347.472656 179.810222,347.370118 179.59375,347.165039 C179.377278,346.95996 179.269043,346.652346 179.269043,346.242188 C179.269043,345.786456 179.400064,345.475994 179.662109,345.310791 C179.924155,345.145588 180.442542,345.062988 181.217285,345.062988 L181.576172,345.062988 L181.576172,327.562988 L181.251465,327.562988 C180.476721,327.562988 179.946942,327.471843 179.662109,327.289551 C179.377277,327.107258 179.234863,326.788251 179.234863,326.33252 C179.234863,325.922361 179.348794,325.614747 179.57666,325.409668 C179.804526,325.204589 180.140623,325.102051 180.584961,325.102051 L183.182617,325.102051 C183.524416,325.102051 183.772216,325.159016 183.926025,325.272949 C184.079835,325.386882 184.156738,325.563475 184.156738,325.802734 L184.156738,334.142578 Z M209.569336,345.507324 C211.323902,345.507324 212.762283,344.95191 213.884521,343.841064 C215.00676,342.730219 215.567871,341.314624 215.567871,339.594238 C215.567871,337.873852 215.003912,336.452561 213.875977,335.330322 C212.748041,334.208084 211.312509,333.646973 209.569336,333.646973 C207.826163,333.646973 206.393479,334.208084 205.27124,335.330322 C204.149002,336.452561 203.587891,337.873852 203.587891,339.594238 C203.587891,341.326018 204.146153,342.744461 205.262695,343.849609 C206.379237,344.954758 207.81477,345.507324 209.569336,345.507324 Z M218.541504,339.594238 C218.541504,342.032402 217.709806,344.026197 216.046387,345.575684 C214.382967,347.125171 212.223972,347.899902 209.569336,347.899902 C206.926094,347.899902 204.772795,347.125171 203.109375,345.575684 C201.445955,344.026197 200.614258,342.032402 200.614258,339.594238 C200.614258,337.156075 201.445955,335.165128 203.109375,333.621338 C204.772795,332.077548 206.926094,331.305664 209.569336,331.305664 C212.212578,331.305664 214.368725,332.080396 216.037842,333.629883 C217.706958,335.17937 218.541504,337.167468 218.541504,339.594238 Z M226.830078,345.062988 L227.325684,345.062988 C227.895348,345.062988 228.339679,345.168375 228.658691,345.37915 C228.977703,345.589926 229.137207,345.888995 229.137207,346.276367 C229.137207,346.686525 228.997641,346.988443 228.718506,347.182129 C228.43937,347.375815 227.997887,347.472656 227.394043,347.472656 L222.677246,347.472656 C222.335448,347.472656 222.05062,347.358725 221.822754,347.130859 C221.594888,346.902994 221.480957,346.618166 221.480957,346.276367 C221.480957,345.854816 221.634764,345.547201 221.942383,345.353516 C222.250002,345.15983 222.739905,345.062988 223.412109,345.062988 L223.753906,345.062988 L229.291016,339.38916 L223.856445,334.108398 L223.617188,334.108398 C222.956377,334.108398 222.497804,334.020102 222.241455,333.843506 C221.985106,333.66691 221.856934,333.356448 221.856934,332.912109 C221.856934,332.444985 222.002196,332.123129 222.292725,331.946533 C222.583253,331.769937 223.138668,331.681641 223.958984,331.681641 L227.462402,331.681641 C228.07764,331.681641 228.52482,331.78133 228.803955,331.980713 C229.083091,332.180095 229.222656,332.490558 229.222656,332.912109 C229.222656,333.299481 229.066001,333.595702 228.752686,333.800781 C228.43937,334.00586 227.986494,334.108398 227.394043,334.108398 L227.257324,334.108398 L230.931641,337.714355 L234.435059,334.108398 L234.076172,334.108398 C233.438148,334.108398 232.965334,334.014405 232.657715,333.826416 C232.350096,333.638427 232.196289,333.345054 232.196289,332.946289 C232.196289,332.501951 232.333006,332.180095 232.606445,331.980713 C232.879884,331.78133 233.324216,331.681641 233.939453,331.681641 L238.382812,331.681641 C238.736004,331.681641 239.023681,331.792723 239.24585,332.014893 C239.468019,332.237062 239.579102,332.524738 239.579102,332.87793 C239.579102,333.299481 239.436688,333.609944 239.151855,333.809326 C238.867023,334.008709 238.411299,334.108398 237.784668,334.108398 L237.306152,334.108398 L232.401367,339.218262 L238.382812,345.062988 L238.553711,345.062988 C238.986656,345.062988 239.322753,345.168375 239.562012,345.37915 C239.801271,345.589926 239.920898,345.888995 239.920898,346.276367 C239.920898,346.732099 239.784181,347.045409 239.510742,347.216309 C239.237303,347.387208 238.673344,347.472656 237.818848,347.472656 L234.33252,347.472656 C233.728675,347.472656 233.284344,347.375815 232.999512,347.182129 C232.71468,346.988443 232.572266,346.686525 232.572266,346.276367 C232.572266,345.900389 232.708983,345.604168 232.982422,345.387695 C233.255861,345.171223 233.631834,345.062988 234.110352,345.062988 L235.067383,345.062988 L230.760742,340.858887 L226.830078,345.062988 Z" id="/kiez-box"></path>
        </g>
    </g>
</svg>